<svg width="1600" height="602" viewBox="0 0 1600 602" fill="none" xmlns="http://www.w3.org/2000/svg">
  <g opacity="0.5">
    <path opacity="0.4" d="M299.366 3.84254C430.479 3.84254 493.774 70.0126 632.799 70.0126C771.823 70.0126 818.165 3.84252 953.798 3.84253C1089.43 3.84253 1166.29 70.0126 1263.5 70.0126" stroke="#D9D9D9" stroke-width="4" stroke-linejoin="round" stroke-dasharray="6 6"/>
    <path opacity="0.55" d="M36.1357 190.519C92.3141 169.525 178.392 140.013 262.87 140.013C403.518 140.013 471.417 216.77 620.552 216.77C769.688 216.77 819.399 140.013 964.897 140.013C1110.39 140.013 1192.84 216.77 1297.12 216.77" stroke="#D9D9D9" stroke-width="4" stroke-linejoin="round" stroke-dasharray="6 6"/>
    <path opacity="0.65" d="M5.00977 377.276C63.5686 356.282 153.294 326.77 241.351 326.77C387.959 326.77 458.735 403.527 614.19 403.527C769.644 403.527 821.463 326.77 973.126 326.77C1124.79 326.77 1210.73 403.527 1319.42 403.527C1521.64 403.527 1539.33 326.759 1600 326.77" stroke="#D9D9D9" stroke-width="4" stroke-linejoin="round" stroke-dasharray="6 6"/>
    <path opacity="0.7" d="M0 573.593C58.5588 552.599 148.284 523.087 236.342 523.087C382.949 523.087 453.725 599.844 609.18 599.844C764.635 599.844 816.453 523.087 968.116 523.087C1119.78 523.087 1205.72 599.844 1314.41 599.844C1516.63 599.844 1534.32 523.076 1594.99 523.087" stroke="#D9D9D9" stroke-width="4" stroke-linejoin="round" stroke-dasharray="6 6"/>
  </g>
  <path d="M399.139 275.751C394.768 266.737 370.458 256.904 368.819 275.751C367.18 294.599 415.801 296.237 446.667 292.959M454.862 292.959C471.251 292.959 497.473 275.751 466.334 259.362M466.334 249.528C479.445 233.959 454.862 206.917 424.542 226.584M424.542 215.112C414.709 195.444 350.791 192.167 359.805 246.25M350.791 242.973C334.402 249.528 331.124 269.196 349.152 284.765M363.083 292.959C356.527 292.959 336.861 288.862 340.138 307.71C341.977 318.28 354.069 315.904 361.444 313.446M438.473 301.154H374.555C364.722 304.432 368.819 316.724 381.93 313.446M368.819 237.237C367.18 234.778 365.705 227.895 372.917 220.028M452.403 230.681C455.681 231.774 461.909 235.762 460.598 242.973" stroke="#D9D9D9" stroke-width="3" stroke-dasharray="8 8"/>
  <path d="M132.72 117.974C114.692 111.419 103.22 64.7101 149.929 64.7101M158.943 77.0018C152.114 67.1684 143.373 43.4043 176.151 43.4043M176.151 54.0572C176.151 37.6688 190.901 21.2797 212.207 43.4043M197.457 33.3921C197.457 8.80822 234.332 -20.5132 253.18 28.6547M234.332 54.0572C225.318 33.3921 271.207 11.4461 271.207 54.0572M220.401 97.4887C220.401 82.7384 248.263 69.6271 255.638 94.2109M244.166 111.419C248.263 94.2109 267.11 90.1134 271.207 111.419" stroke="#D9D9D9" stroke-width="3" stroke-dasharray="12 12"/>
  <path d="M1406.82 240.033C1413.65 225.982 1451.59 210.654 1454.15 240.033C1456.71 269.412 1380.81 271.967 1332.64 266.857M1319.84 266.857C1294.26 266.857 1253.33 240.033 1301.94 214.485M1301.94 199.156C1281.47 174.887 1319.84 132.733 1367.17 163.39M1367.17 145.508C1382.52 114.849 1482.29 109.74 1468.22 194.047M1482.29 188.938C1507.87 199.156 1512.99 229.814 1484.85 254.084M1463.1 266.857C1473.34 266.857 1504.04 260.471 1498.92 289.85C1496.05 306.328 1477.17 302.624 1465.66 298.792M1345.43 279.631H1445.2C1460.55 284.741 1454.15 303.901 1433.68 298.792M1454.15 179.996C1456.71 176.164 1459.01 165.434 1447.75 153.171M1323.68 169.777C1318.57 171.48 1308.84 177.697 1310.89 188.937" stroke="#D9D9D9" stroke-width="3" stroke-dasharray="6 6"/>
</svg>
