<svg width="50" height="50" viewBox="0 0 50 50" fill="none" xmlns="http://www.w3.org/2000/svg">
  <path fill-rule="evenodd" clip-rule="evenodd" d="M25 0C11.1917 0 0 11.1937 0 25C0 38.8062 11.1917 50 25 50C38.8062 50 50 38.8062 50 25C50 11.1937 38.8062 0 25 0ZM25.2917 39.6208C17.2333 39.6208 10.7083 33.0792 10.7083 25C10.7083 16.9208 17.2333 10.3792 25.2917 10.3792C29.2292 10.3792 32.5208 11.8312 35.0458 14.1896L30.9333 18.3104V18.3021C29.4021 16.8396 27.4604 16.0896 25.2917 16.0896C20.4792 16.0896 16.5688 20.1646 16.5688 24.9917C16.5688 29.8146 20.4792 33.9021 25.2917 33.9021C29.6583 33.9021 32.6292 31.3979 33.2417 27.9604H25.2917V22.2583H39.0104C39.1937 23.2375 39.2917 24.2583 39.2917 25.3292C39.2917 33.6833 33.7146 39.6208 25.2917 39.6208Z" fill="#272727"/>
</svg>
