<svg width="60" height="60" viewBox="0 0 60 60" fill="none" xmlns="http://www.w3.org/2000/svg">
  <path d="M35 30L26.25 35V25L35 30Z" fill="#197275" stroke="#197275" stroke-width="3.75" stroke-linecap="round"
        stroke-linejoin="round"/>
  <path
    d="M5 31.7675V28.23C5 20.9925 5 17.3725 7.2625 15.045C9.5275 12.715 13.0925 12.615 20.22 12.4125C23.595 12.3175 27.045 12.25 30 12.25C32.9525 12.25 36.4025 12.3175 39.78 12.4125C46.9075 12.615 50.4725 12.715 52.735 15.045C55 17.3725 55 20.995 55 28.23V31.7675C55 39.0075 55 42.625 52.7375 44.955C50.4725 47.2825 46.91 47.385 39.78 47.585C36.405 47.6825 32.955 47.75 30 47.75C26.7394 47.7402 23.4791 47.6852 20.22 47.585C13.0925 47.385 9.5275 47.285 7.2625 44.955C5 42.625 5 39.005 5 31.77V31.7675Z"
    stroke="#197275" stroke-width="3.75"/>
</svg>
