<svg width="56" height="56" viewBox="0 0 56 56" fill="none" xmlns="http://www.w3.org/2000/svg">
  <path fill-rule="evenodd" clip-rule="evenodd" d="M16.6625 0.665C19.595 0.53 20.53 0.5 28 0.5C35.47 0.5 36.405 0.5325 39.335 0.665C42.265 0.7975 44.265 1.265 46.015 1.9425C47.8475 2.635 49.51 3.7175 50.885 5.1175C52.285 6.49 53.365 8.15 54.055 9.985C54.735 11.735 55.2 13.735 55.335 16.66C55.47 19.5975 55.5 20.5325 55.5 28C55.5 35.47 55.4675 36.405 55.335 39.3375C55.2025 42.2625 54.735 44.2625 54.055 46.0125C53.365 47.8477 52.2832 49.5105 50.885 50.885C49.51 52.285 47.8475 53.365 46.015 54.055C44.265 54.735 42.265 55.2 39.34 55.335C36.405 55.47 35.47 55.5 28 55.5C20.53 55.5 19.595 55.4675 16.6625 55.335C13.7375 55.2025 11.7375 54.735 9.9875 54.055C8.1523 53.3649 6.48955 52.2831 5.115 50.885C3.71595 49.5117 2.63329 47.8497 1.9425 46.015C1.265 44.265 0.8 42.265 0.665 39.34C0.53 36.4025 0.5 35.4675 0.5 28C0.5 20.53 0.5325 19.595 0.665 16.665C0.7975 13.735 1.265 11.735 1.9425 9.985C2.63431 8.1502 3.7178 6.48828 5.1175 5.115C6.4901 3.71625 8.15118 2.63361 9.985 1.9425C11.735 1.265 13.7375 0.8 16.6625 0.665ZM39.1125 5.615C36.2125 5.4825 35.3425 5.455 28 5.455C20.6575 5.455 19.7875 5.4825 16.8875 5.615C14.205 5.7375 12.75 6.185 11.78 6.5625C10.4975 7.0625 9.58 7.655 8.6175 8.6175C7.70511 9.50513 7.00295 10.5857 6.5625 11.78C6.185 12.75 5.7375 14.205 5.615 16.8875C5.4825 19.7875 5.455 20.6575 5.455 28C5.455 35.3425 5.4825 36.2125 5.615 39.1125C5.7375 41.795 6.185 43.25 6.5625 44.22C7.0025 45.4125 7.705 46.495 8.6175 47.3825C9.505 48.295 10.5875 48.9975 11.78 49.4375C12.75 49.815 14.205 50.2625 16.8875 50.385C19.7875 50.5175 20.655 50.545 28 50.545C35.345 50.545 36.2125 50.5175 39.1125 50.385C41.795 50.2625 43.25 49.815 44.22 49.4375C45.5025 48.9375 46.42 48.345 47.3825 47.3825C48.295 46.495 48.9975 45.4125 49.4375 44.22C49.815 43.25 50.2625 41.795 50.385 39.1125C50.5175 36.2125 50.545 35.3425 50.545 28C50.545 20.6575 50.5175 19.7875 50.385 16.8875C50.2625 14.205 49.815 12.75 49.4375 11.78C48.9375 10.4975 48.345 9.58 47.3825 8.6175C46.4948 7.70518 45.4143 7.00303 44.22 6.5625C43.25 6.185 41.795 5.7375 39.1125 5.615ZM24.4875 36.4775C26.4491 37.2941 28.6334 37.4043 30.6673 36.7893C32.7012 36.1743 34.4585 34.8723 35.639 33.1056C36.8196 31.3389 37.3501 29.2172 37.1401 27.1028C36.9301 24.9883 35.9925 23.0124 34.4875 21.5125C33.5281 20.5537 32.368 19.8195 31.0908 19.3629C29.8136 18.9062 28.4511 18.7384 27.1012 18.8715C25.7514 19.0047 24.4479 19.4354 23.2845 20.1328C22.1211 20.8302 21.1269 21.7769 20.3733 22.9046C19.6197 24.0324 19.1255 25.3132 18.9263 26.6549C18.7271 27.9966 18.8279 29.3657 19.2213 30.6638C19.6148 31.9619 20.2912 33.1565 21.2018 34.1618C22.1124 35.1671 23.2346 35.958 24.4875 36.4775ZM18.005 18.005C19.3176 16.6924 20.8758 15.6513 22.5907 14.9409C24.3057 14.2305 26.1438 13.8649 28 13.8649C29.8562 13.8649 31.6943 14.2305 33.4093 14.9409C35.1242 15.6513 36.6824 16.6924 37.995 18.005C39.3076 19.3176 40.3487 20.8758 41.0591 22.5907C41.7695 24.3057 42.1351 26.1438 42.1351 28C42.1351 29.8562 41.7695 31.6943 41.0591 33.4093C40.3487 35.1242 39.3076 36.6824 37.995 37.995C35.3442 40.6458 31.7489 42.1351 28 42.1351C24.2511 42.1351 20.6558 40.6458 18.005 37.995C15.3542 35.3442 13.8649 31.7489 13.8649 28C13.8649 24.2511 15.3542 20.6558 18.005 18.005ZM45.27 15.97C45.5953 15.6632 45.8557 15.2942 46.0358 14.8849C46.2159 14.4757 46.312 14.0344 46.3185 13.5873C46.3251 13.1402 46.2418 12.6964 46.0737 12.282C45.9056 11.8677 45.6561 11.4913 45.3399 11.1751C45.0237 10.8589 44.6473 10.6094 44.233 10.4413C43.8186 10.2732 43.3748 10.1899 42.9277 10.1965C42.4806 10.203 42.0393 10.2991 41.6301 10.4792C41.2208 10.6593 40.8518 10.9197 40.545 11.245C39.9483 11.8776 39.6216 12.7178 39.6343 13.5873C39.6469 14.4568 39.998 15.2872 40.6129 15.9021C41.2278 16.517 42.0582 16.8681 42.9277 16.8807C43.7972 16.8934 44.6374 16.5667 45.27 15.97Z" fill="#197275"/>
</svg>
