<svg width="54" height="48" viewBox="0 0 54 48" fill="none" xmlns="http://www.w3.org/2000/svg">
  <path d="M3.25 38.7024C5.66125 40.0362 23.1137 50.0962 35.525 42.3424C47.935 34.5887 47.25 21.2299 47.25 15.1074C48.375 12.7524 50.75 11.5549 50.75 5.17995C48.4175 7.33495 46.0988 8.06745 43.7938 7.37995C41.5363 3.93745 38.43 2.4137 34.4738 2.8112C28.5413 3.40745 26.3712 9.22745 27.01 16.7587C17.8625 21.3837 10.69 13.4049 6.9925 7.37995C5.7575 12.1249 4.5675 17.8224 6.9925 24.1237C8.61 28.3262 12.4988 31.8774 18.6563 34.7812C12.415 38.1624 7.28 39.4712 3.25 38.7024Z" stroke="#197275" stroke-width="5" stroke-linejoin="round"/>
</svg>
