<svg width="54" height="40" viewBox="0 0 54 40" fill="none" xmlns="http://www.w3.org/2000/svg">
  <path d="M32 20L23.25 25V15L32 20Z" fill="#197275" stroke="#197275" stroke-width="3.75" stroke-linecap="round" stroke-linejoin="round"/>
  <path d="M2 21.7675V18.23C2 10.9925 2 7.3725 4.2625 5.045C6.5275 2.715 10.0925 2.615 17.22 2.4125C20.595 2.3175 24.045 2.25 27 2.25C29.9525 2.25 33.4025 2.3175 36.78 2.4125C43.9075 2.615 47.4725 2.715 49.735 5.045C52 7.3725 52 10.995 52 18.23V21.7675C52 29.0075 52 32.625 49.7375 34.955C47.4725 37.2825 43.91 37.385 36.78 37.585C33.405 37.6825 29.955 37.75 27 37.75C23.7394 37.7402 20.4791 37.6852 17.22 37.585C10.0925 37.385 6.5275 37.285 4.2625 34.955C2 32.625 2 29.005 2 21.77V21.7675Z" stroke="#197275" stroke-width="3.75"/>
</svg>
