<svg width="202" height="61" viewBox="0 0 202 61" fill="none" xmlns="http://www.w3.org/2000/svg">
  <rect width="202" height="60.604" rx="12" fill="white"/>
  <path d="M16.5117 19.7812V34H13.084V19.7812H16.5117ZM22.0391 25.6992V28.3359H15.5352V25.6992H22.0391ZM22.5957 19.7812V22.4277H15.5352V19.7812H22.5957ZM24.0215 19.7812H29.6172C30.7109 19.7812 31.6615 19.944 32.4688 20.2695C33.276 20.5951 33.8978 21.0768 34.334 21.7148C34.7767 22.3529 34.998 23.1406 34.998 24.0781C34.998 24.8919 34.8711 25.5723 34.6172 26.1191C34.3633 26.666 34.0085 27.1185 33.5527 27.4766C33.1035 27.8281 32.5794 28.1178 31.9805 28.3457L30.8574 28.9805H26.1602L26.1406 26.334H29.6172C30.0534 26.334 30.4147 26.2559 30.7012 26.0996C30.9876 25.9434 31.2025 25.722 31.3457 25.4355C31.4954 25.1426 31.5703 24.7943 31.5703 24.3906C31.5703 23.9805 31.4954 23.6289 31.3457 23.3359C31.196 23.043 30.9746 22.8184 30.6816 22.6621C30.3952 22.5059 30.0404 22.4277 29.6172 22.4277H27.4492V34H24.0215V19.7812ZM31.8047 34L28.6602 27.7109L32.293 27.6914L35.4766 33.8535V34H31.8047ZM46.8535 31.3633V34H39.2754V31.3633H46.8535ZM40.4961 19.7812V34H37.0684V19.7812H40.4961ZM45.877 25.4258V27.9746H39.2754V25.4258H45.877ZM46.8828 19.7812V22.4277H39.2754V19.7812H46.8828ZM55.584 30.2207C55.584 29.9993 55.5514 29.8008 55.4863 29.625C55.4212 29.4427 55.3008 29.2734 55.125 29.1172C54.9492 28.9609 54.6953 28.8047 54.3633 28.6484C54.0378 28.4857 53.6081 28.3164 53.0742 28.1406C52.4492 27.9323 51.847 27.6979 51.2676 27.4375C50.6882 27.1706 50.1706 26.8613 49.7148 26.5098C49.2591 26.1517 48.8978 25.735 48.6309 25.2598C48.3639 24.778 48.2305 24.2181 48.2305 23.5801C48.2305 22.9681 48.3672 22.418 48.6406 21.9297C48.9141 21.4349 49.2949 21.015 49.7832 20.6699C50.278 20.3184 50.8574 20.0514 51.5215 19.8691C52.1855 19.6803 52.9115 19.5859 53.6992 19.5859C54.7409 19.5859 55.6589 19.7682 56.4531 20.1328C57.2539 20.4909 57.8789 21.002 58.3281 21.666C58.7839 22.3236 59.0117 23.1016 59.0117 24H55.6035C55.6035 23.6419 55.5286 23.3262 55.3789 23.0527C55.2357 22.7793 55.0176 22.5645 54.7246 22.4082C54.4316 22.252 54.0638 22.1738 53.6211 22.1738C53.1914 22.1738 52.8301 22.2389 52.5371 22.3691C52.2441 22.4993 52.0228 22.6751 51.873 22.8965C51.7233 23.1113 51.6484 23.349 51.6484 23.6094C51.6484 23.8242 51.707 24.0195 51.8242 24.1953C51.9479 24.3646 52.1204 24.5241 52.3418 24.6738C52.5697 24.8236 52.8431 24.9668 53.1621 25.1035C53.4876 25.2402 53.8522 25.3737 54.2559 25.5039C55.0111 25.7448 55.6816 26.015 56.2676 26.3145C56.86 26.6074 57.3581 26.9427 57.7617 27.3203C58.1719 27.6914 58.4811 28.1146 58.6895 28.5898C58.9043 29.0651 59.0117 29.6022 59.0117 30.2012C59.0117 30.8392 58.888 31.4056 58.6406 31.9004C58.3932 32.3952 58.0384 32.8151 57.5762 33.1602C57.1139 33.4987 56.5605 33.7559 55.916 33.9316C55.2715 34.1074 54.5521 34.1953 53.7578 34.1953C53.0286 34.1953 52.3092 34.1042 51.5996 33.9219C50.8965 33.7331 50.2585 33.4466 49.6855 33.0625C49.1126 32.6719 48.6536 32.1738 48.3086 31.5684C47.9701 30.9564 47.8008 30.2305 47.8008 29.3906H51.2383C51.2383 29.8073 51.2936 30.1589 51.4043 30.4453C51.515 30.7318 51.6777 30.9629 51.8926 31.1387C52.1074 31.3079 52.3711 31.4316 52.6836 31.5098C52.9961 31.5814 53.3542 31.6172 53.7578 31.6172C54.194 31.6172 54.5456 31.5553 54.8125 31.4316C55.0794 31.3014 55.2747 31.1322 55.3984 30.9238C55.5221 30.709 55.584 30.4746 55.584 30.2207ZM70.3594 25.4258V28.0625H63.0645V25.4258H70.3594ZM64.207 19.7812V34H60.7793V19.7812H64.207ZM72.6641 19.7812V34H69.2461V19.7812H72.6641Z" fill="#2D3D3D"/>
  <path d="M129.17 29.1855H132.588C132.542 30.1751 132.275 31.0475 131.787 31.8027C131.299 32.5579 130.622 33.1471 129.756 33.5703C128.896 33.987 127.881 34.1953 126.709 34.1953C125.758 34.1953 124.909 34.0358 124.16 33.7168C123.418 33.3978 122.786 32.9388 122.266 32.3398C121.751 31.7409 121.357 31.015 121.084 30.1621C120.817 29.3092 120.684 28.349 120.684 27.2812V26.5098C120.684 25.4421 120.824 24.4818 121.104 23.6289C121.39 22.7695 121.794 22.0404 122.314 21.4414C122.842 20.8359 123.473 20.3737 124.209 20.0547C124.945 19.7357 125.762 19.5762 126.66 19.5762C127.897 19.5762 128.942 19.7975 129.795 20.2402C130.648 20.6829 131.309 21.2917 131.777 22.0664C132.246 22.8346 132.523 23.7103 132.607 24.6934H129.189C129.176 24.1595 129.085 23.7135 128.916 23.3555C128.747 22.9909 128.48 22.7174 128.115 22.5352C127.751 22.3529 127.266 22.2617 126.66 22.2617C126.237 22.2617 125.869 22.3398 125.557 22.4961C125.244 22.6523 124.984 22.8997 124.775 23.2383C124.567 23.5768 124.411 24.0163 124.307 24.5566C124.209 25.0905 124.16 25.735 124.16 26.4902V27.2812C124.16 28.0365 124.206 28.681 124.297 29.2148C124.388 29.7487 124.535 30.1849 124.736 30.5234C124.938 30.862 125.199 31.1126 125.518 31.2754C125.843 31.4316 126.24 31.5098 126.709 31.5098C127.23 31.5098 127.669 31.4284 128.027 31.2656C128.385 31.0964 128.662 30.8424 128.857 30.5039C129.053 30.1589 129.157 29.7194 129.17 29.1855ZM141.234 22.7695L137.768 34H134.086L139.311 19.7812H141.645L141.234 22.7695ZM144.105 34L140.629 22.7695L140.18 19.7812H142.543L147.797 34H144.105ZM143.969 28.6973V31.3438H136.674V28.6973H143.969ZM155.555 19.7812V34H152.127V19.7812H155.555ZM159.832 19.7812V22.4277H147.947V19.7812H159.832ZM170.1 29.1855H173.518C173.472 30.1751 173.205 31.0475 172.717 31.8027C172.229 32.5579 171.551 33.1471 170.686 33.5703C169.826 33.987 168.811 34.1953 167.639 34.1953C166.688 34.1953 165.839 34.0358 165.09 33.7168C164.348 33.3978 163.716 32.9388 163.195 32.3398C162.681 31.7409 162.287 31.015 162.014 30.1621C161.747 29.3092 161.613 28.349 161.613 27.2812V26.5098C161.613 25.4421 161.753 24.4818 162.033 23.6289C162.32 22.7695 162.723 22.0404 163.244 21.4414C163.771 20.8359 164.403 20.3737 165.139 20.0547C165.874 19.7357 166.691 19.5762 167.59 19.5762C168.827 19.5762 169.872 19.7975 170.725 20.2402C171.577 20.6829 172.238 21.2917 172.707 22.0664C173.176 22.8346 173.452 23.7103 173.537 24.6934H170.119C170.106 24.1595 170.015 23.7135 169.846 23.3555C169.676 22.9909 169.41 22.7174 169.045 22.5352C168.68 22.3529 168.195 22.2617 167.59 22.2617C167.167 22.2617 166.799 22.3398 166.486 22.4961C166.174 22.6523 165.913 22.8997 165.705 23.2383C165.497 23.5768 165.34 24.0163 165.236 24.5566C165.139 25.0905 165.09 25.735 165.09 26.4902V27.2812C165.09 28.0365 165.135 28.681 165.227 29.2148C165.318 29.7487 165.464 30.1849 165.666 30.5234C165.868 30.862 166.128 31.1126 166.447 31.2754C166.773 31.4316 167.17 31.5098 167.639 31.5098C168.16 31.5098 168.599 31.4284 168.957 31.2656C169.315 31.0964 169.592 30.8424 169.787 30.5039C169.982 30.1589 170.087 29.7194 170.1 29.1855ZM185.719 25.4258V28.0625H178.424V25.4258H185.719ZM179.566 19.7812V34H176.139V19.7812H179.566ZM188.023 19.7812V34H184.605V19.7812H188.023Z" fill="#2D3D3D"/>
  <g clip-path="url(#clip0_627_2512)">
    <path d="M84.8305 13.8271C84.3764 14.3958 84.0944 15.0825 84.0177 15.8062C83.9552 16.4065 84.0401 17.013 84.2651 17.5731C84.7404 18.7225 85.6384 19.6458 86.7742 20.1529C82.0387 30.1363 89.407 36.3561 99.143 36.9745C97.3711 37.3519 95.538 37.3354 93.7732 36.9263C92.0084 36.5171 90.355 35.7253 88.9299 34.6068C87.5387 33.4349 86.4232 31.9707 85.6627 30.3184C84.9022 28.666 84.5155 26.8663 84.5301 25.0475C84.0637 26.7142 83.9612 28.4618 84.2297 30.1717C84.4587 31.4639 84.8942 32.7109 85.5196 33.8647C87.0019 36.4268 89.2783 38.4365 92.0044 39.5897V40.7735L91.1209 41.4803C93.1506 41.794 95.2252 41.6386 97.1855 41.026C99.1458 40.4134 100.94 39.3599 102.43 37.9464C104.052 36.1654 105.099 33.9359 105.433 31.5499C104.265 31.0134 103.028 30.6389 101.758 30.4367C100.519 30.2443 99.2593 30.2146 98.0122 30.3484C97.6334 29.9895 97.3327 29.5564 97.1287 29.0762C96.9231 28.6127 96.8033 28.1158 96.7753 27.6096C96.3691 27.9315 96.0274 28.3271 95.7681 28.7758C95.5043 29.2319 95.336 29.7369 95.2733 30.26C94.0874 30.1754 92.9319 29.846 91.8796 29.2925C90.8273 28.739 89.9012 27.9734 89.1596 27.0441C88.4477 26.085 87.9461 24.9865 87.6873 23.8205C87.4285 22.6544 87.4184 21.4469 87.6577 20.2766C88.7913 20.2975 89.8991 19.9366 90.8029 19.2518C91.7258 18.5111 92.3527 17.4642 92.5699 16.3009C91.7517 15.9769 90.8489 15.9347 90.0041 16.1811C89.1593 16.4275 88.4207 16.9484 87.905 17.6615C87.7402 16.8216 87.3744 16.0342 86.839 15.3665C86.3036 14.6987 85.6144 14.1706 84.8305 13.8271Z" fill="#197275"/>
    <path d="M112.001 39.7593C112.465 39.1996 112.759 38.5192 112.849 37.798C112.919 37.1975 112.834 36.5891 112.602 36.031C112.129 34.8905 111.237 33.9739 110.11 33.4689C114.828 23.4678 107.478 17.248 97.7416 16.6296C99.5162 16.2495 101.353 16.2646 103.121 16.6738C104.889 17.083 106.545 17.8763 107.972 18.9973C109.364 20.1692 110.479 21.6334 111.24 23.2858C112 24.9381 112.387 26.7378 112.372 28.5567C112.836 26.8708 112.927 25.1039 112.637 23.3794C112.394 22.083 111.953 20.8315 111.33 19.6688C109.859 17.1015 107.578 15.0943 104.845 13.9614V12.8306L105.781 12.1414C103.752 11.821 101.675 11.9732 99.7138 12.5861C97.7524 13.199 95.9588 14.2562 94.4727 15.6754C92.8509 17.4472 91.7929 19.6616 91.4335 22.0365C92.6078 22.5746 93.8504 22.9491 95.1265 23.1497C96.3692 23.322 97.6297 23.322 98.8725 23.1497C99.2358 23.5216 99.5344 23.9516 99.7559 24.4219C99.9615 24.8854 100.081 25.3823 100.109 25.8885C100.469 25.5835 100.774 25.2189 101.01 24.8107C101.273 24.3523 101.446 23.8489 101.523 23.3264C102.721 23.3911 103.891 23.7153 104.952 24.2766C106.013 24.8379 106.939 25.623 107.667 26.5774C108.394 27.5318 108.906 28.6329 109.166 29.8045C109.426 30.976 109.429 32.1901 109.174 33.3628C108.008 33.3319 106.869 33.7138 105.957 34.4413C105.045 35.1687 104.42 36.1948 104.191 37.3385C105.012 37.6608 105.917 37.7021 106.764 37.4559C107.611 37.2098 108.353 36.6901 108.874 35.978C109.04 36.8184 109.413 37.6041 109.959 38.2643C110.505 38.9244 111.207 39.4382 112.001 39.7593Z" fill="#197275"/>
  </g>
  <path d="M62.4815 47.5117C62.4579 47.2513 62.3525 47.0488 62.1655 46.9044C61.9808 46.7576 61.7169 46.6843 61.3736 46.6843C61.1463 46.6843 60.9569 46.7139 60.8054 46.773C60.6539 46.8322 60.5402 46.9139 60.4645 47.0181C60.3887 47.1199 60.3497 47.2371 60.3473 47.3696C60.3426 47.4785 60.3639 47.5744 60.4112 47.6573C60.4609 47.7401 60.532 47.8135 60.6243 47.8774C60.719 47.939 60.8326 47.9934 60.9652 48.0408C61.0978 48.0881 61.2469 48.1296 61.4126 48.1651L62.0376 48.3071C62.3975 48.3853 62.7147 48.4894 62.9893 48.6196C63.2663 48.7498 63.4983 48.9049 63.6854 49.0848C63.8748 49.2648 64.018 49.4719 64.1151 49.7063C64.2121 49.9407 64.2618 50.2034 64.2642 50.4946C64.2618 50.9539 64.1458 51.3481 63.9162 51.6772C63.6866 52.0062 63.3563 52.2584 62.9254 52.4335C62.4969 52.6087 61.9796 52.6963 61.3736 52.6963C60.7652 52.6963 60.2348 52.6052 59.7827 52.4229C59.3305 52.2406 58.9789 51.9636 58.728 51.5919C58.477 51.2202 58.348 50.7503 58.3409 50.1821H60.0241C60.0384 50.4165 60.1011 50.6118 60.2124 50.7681C60.3236 50.9243 60.4763 51.0427 60.6705 51.1232C60.867 51.2037 61.0942 51.2439 61.3523 51.2439C61.589 51.2439 61.7902 51.212 61.956 51.148C62.1241 51.0841 62.2531 50.9953 62.343 50.8817C62.433 50.7681 62.4792 50.6379 62.4815 50.4911C62.4792 50.3538 62.4366 50.2366 62.3537 50.1395C62.2708 50.0401 62.143 49.9549 61.9702 49.8838C61.7997 49.8104 61.5819 49.743 61.3168 49.6814L60.5568 49.5039C59.9271 49.3594 59.4311 49.1263 59.0689 48.8043C58.7067 48.48 58.5268 48.042 58.5291 47.4904C58.5268 47.0406 58.6475 46.6464 58.8913 46.3078C59.1352 45.9693 59.4725 45.7053 59.9034 45.5159C60.3343 45.3265 60.8255 45.2318 61.3771 45.2318C61.9406 45.2318 62.4295 45.3277 62.8438 45.5195C63.2604 45.7089 63.5836 45.9752 63.8132 46.3185C64.0429 46.6618 64.16 47.0595 64.1648 47.5117H62.4815ZM71.152 52.604V45.3313H76.223V46.7588H72.9098V48.2503H75.9638V49.6814H72.9098V51.1764H76.223V52.604H71.152ZM84.897 52.604H83.0078L85.4616 45.3313H87.8018L90.2557 52.604H88.3665L86.6584 47.1637H86.6016L84.897 52.604ZM84.6449 49.7418H88.5938V51.077H84.6449V49.7418ZM97.0387 52.604V45.3313H102.003V46.7588H98.7965V48.2503H101.687V49.6814H98.7965V52.604H97.0387ZM115.753 48.9676C115.753 49.7678 115.599 50.4461 115.291 51.0024C114.983 51.5588 114.567 51.9814 114.041 52.2702C113.518 52.559 112.931 52.7034 112.28 52.7034C111.626 52.7034 111.038 52.5578 110.515 52.2666C109.992 51.9755 109.576 51.5529 109.268 50.9989C108.963 50.4425 108.81 49.7655 108.81 48.9676C108.81 48.1675 108.963 47.4892 109.268 46.9328C109.576 46.3765 109.992 45.9539 110.515 45.6651C111.038 45.3763 111.626 45.2318 112.28 45.2318C112.931 45.2318 113.518 45.3763 114.041 45.6651C114.567 45.9539 114.983 46.3765 115.291 46.9328C115.599 47.4892 115.753 48.1675 115.753 48.9676ZM113.956 48.9676C113.956 48.4942 113.888 48.0941 113.753 47.7674C113.621 47.4407 113.429 47.1933 113.178 47.0252C112.93 46.8571 112.63 46.773 112.28 46.773C111.932 46.773 111.632 46.8571 111.381 47.0252C111.13 47.1933 110.937 47.4407 110.802 47.7674C110.67 48.0941 110.604 48.4942 110.604 48.9676C110.604 49.4411 110.67 49.8412 110.802 50.1679C110.937 50.4946 111.13 50.742 111.381 50.9101C111.632 51.0782 111.932 51.1622 112.28 51.1622C112.63 51.1622 112.93 51.0782 113.178 50.9101C113.429 50.742 113.621 50.4946 113.753 50.1679C113.888 49.8412 113.956 49.4411 113.956 48.9676ZM129.643 48.9676C129.643 49.7678 129.489 50.4461 129.182 51.0024C128.874 51.5588 128.457 51.9814 127.932 52.2702C127.408 52.559 126.821 52.7034 126.17 52.7034C125.517 52.7034 124.929 52.5578 124.405 52.2666C123.882 51.9755 123.467 51.5529 123.159 50.9989C122.854 50.4425 122.701 49.7655 122.701 48.9676C122.701 48.1675 122.854 47.4892 123.159 46.9328C123.467 46.3765 123.882 45.9539 124.405 45.6651C124.929 45.3763 125.517 45.2318 126.17 45.2318C126.821 45.2318 127.408 45.3763 127.932 45.6651C128.457 45.9539 128.874 46.3765 129.182 46.9328C129.489 47.4892 129.643 48.1675 129.643 48.9676ZM127.846 48.9676C127.846 48.4942 127.779 48.0941 127.644 47.7674C127.511 47.4407 127.32 47.1933 127.069 47.0252C126.82 46.8571 126.521 46.773 126.17 46.773C125.822 46.773 125.523 46.8571 125.272 47.0252C125.021 47.1933 124.828 47.4407 124.693 47.7674C124.56 48.0941 124.494 48.4942 124.494 48.9676C124.494 49.4411 124.56 49.8412 124.693 50.1679C124.828 50.4946 125.021 50.742 125.272 50.9101C125.523 51.0782 125.822 51.1622 126.17 51.1622C126.521 51.1622 126.82 51.0782 127.069 50.9101C127.32 50.742 127.511 50.4946 127.644 50.1679C127.779 49.8412 127.846 49.4411 127.846 48.9676ZM139.358 52.604H136.67V45.3313H139.354C140.095 45.3313 140.733 45.4769 141.268 45.7681C141.806 46.0569 142.22 46.4736 142.511 47.0181C142.802 47.5602 142.948 48.2089 142.948 48.9641C142.948 49.7217 142.802 50.3727 142.511 50.9172C142.222 51.4617 141.809 51.8796 141.272 52.1708C140.734 52.4596 140.096 52.604 139.358 52.604ZM138.427 51.1054H139.29C139.698 51.1054 140.042 51.0368 140.324 50.8995C140.608 50.7598 140.822 50.5337 140.966 50.2212C141.113 49.9063 141.187 49.4873 141.187 48.9641C141.187 48.4409 141.113 48.0242 140.966 47.7141C140.82 47.4016 140.603 47.1767 140.317 47.0394C140.032 46.8997 139.682 46.8299 139.265 46.8299H138.427V51.1054Z" fill="#197275"/>
  <defs>
    <clipPath id="clip0_627_2512">
      <rect width="32" height="30.604" fill="white" transform="translate(81 12)"/>
    </clipPath>
  </defs>
</svg>
