<svg width="101" height="97" viewBox="0 0 101 97" fill="none" xmlns="http://www.w3.org/2000/svg">
  <g clip-path="url(#clip0_735_80)">
    <path d="M12.09 5.76697C10.6568 7.5619 9.76669 9.72915 9.52453 12.0132C9.32733 13.9081 9.59533 15.8224 10.3053 17.5903C11.8057 21.2179 14.6401 24.1321 18.2247 25.7327C3.27825 57.2429 26.5345 76.874 57.2639 78.8259C51.6714 80.017 45.8855 79.965 40.3153 78.6736C34.7451 77.3823 29.5266 74.8831 25.0287 71.3527C20.6379 67.6541 17.1169 63.0325 14.7165 57.8174C12.3162 52.6022 11.0957 46.9219 11.1419 41.181C9.66973 46.4418 9.34639 51.9577 10.1938 57.3544C10.9165 61.433 12.2912 65.3687 14.265 69.0104C18.9434 77.0972 26.1283 83.4402 34.7327 87.0799V90.8165L31.9442 93.0473C38.3504 94.0374 44.8982 93.5468 51.0854 91.6133C57.2725 89.6799 62.9346 86.3548 67.6372 81.8933C72.7584 76.272 76.063 69.2353 77.1181 61.7045C73.4292 60.0111 69.5265 58.829 65.5179 58.191C61.6058 57.5835 57.631 57.4898 53.6946 57.9121C52.4992 56.7793 51.55 55.4124 50.9061 53.8967C50.2571 52.4339 49.8792 50.8655 49.7907 49.2677C48.5088 50.2837 47.4303 51.5325 46.6118 52.9486C45.7791 54.3882 45.2479 55.982 45.0502 57.6333C41.3071 57.3662 37.6599 56.3265 34.3387 54.5795C31.0175 52.8325 28.0944 50.4162 25.7537 47.4831C23.5069 44.4557 21.9235 40.9888 21.1067 37.3084C20.2899 33.6279 20.2581 29.8167 21.0132 26.1231C24.5914 26.1891 28.0879 25.0498 30.9403 22.8884C33.8533 20.5508 35.832 17.2464 36.5173 13.5748C33.935 12.552 31.0855 12.4189 28.4191 13.1966C25.7527 13.9743 23.4215 15.6184 21.794 17.8691C21.2736 15.2183 20.1192 12.733 18.4293 10.6255C16.7394 8.51794 14.5643 6.85095 12.09 5.76697Z" fill="#197275"/>
    <path d="M97.8472 87.6153C99.3108 85.8488 100.24 83.7011 100.524 81.4248C100.745 79.5296 100.476 77.6094 99.7434 75.8478C98.2494 72.2481 95.4364 69.3552 91.8798 67.7611C106.77 36.1952 83.57 16.5641 52.8406 14.6121C58.4417 13.4125 64.238 13.4602 69.8186 14.7517C75.3991 16.0432 80.6271 18.547 85.1316 22.0853C89.5224 25.784 93.0434 30.4055 95.4437 35.6207C97.844 40.8358 99.0646 46.5162 99.0184 52.257C100.483 46.9359 100.768 41.3592 99.855 35.9163C99.0863 31.8243 97.6944 27.8745 95.728 24.2046C91.0855 16.1015 83.8874 9.76637 75.2603 6.19079V2.62149L78.2161 0.446455C71.8095 -0.564951 65.256 -0.0846833 59.0654 1.8499C52.8747 3.78448 47.2138 7.1212 42.5231 11.6005C37.4043 17.1929 34.0651 24.1818 32.9306 31.6778C36.6372 33.376 40.559 34.5582 44.5866 35.1913C48.509 35.735 52.4876 35.735 56.4099 35.1913C57.5567 36.3651 58.4992 37.7222 59.1984 39.2068C59.8474 40.6695 60.2253 42.2379 60.3138 43.8357C61.4499 42.873 62.4119 41.7223 63.1581 40.4337C63.9854 38.987 64.534 37.398 64.7755 35.749C68.5579 35.9532 72.2508 36.9765 75.5988 38.7482C78.9469 40.5198 81.8702 42.9975 84.1667 46.0099C86.4631 49.0223 88.0778 52.4975 88.8992 56.1953C89.7206 59.8931 89.7291 63.7251 88.924 67.4265C85.244 67.3288 81.6477 68.5343 78.7701 70.8302C75.8925 73.1262 73.9186 76.365 73.1968 79.9748C75.7886 80.9919 78.6442 81.1221 81.3179 80.3453C83.9915 79.5684 86.3327 77.9281 87.9759 75.6805C88.5011 78.333 89.6785 80.813 91.4019 82.8966C93.1253 84.9802 95.3404 86.6019 97.8472 87.6153Z" fill="#197275"/>
  </g>
  <defs>
    <clipPath id="clip0_735_80">
      <rect width="101" height="96.594" fill="white"/>
    </clipPath>
  </defs>
</svg>
