<svg width="34" height="34" viewBox="0 0 34 34" fill="none" xmlns="http://www.w3.org/2000/svg">
  <path d="M7.08334 25.2875C8.35834 24.0361 9.84017 23.0506 11.5288 22.3309C13.2175 21.6113 15.0412 21.2509 17 21.25C18.9597 21.25 20.7839 21.6103 22.4726 22.3309C24.1613 23.0515 25.6426 24.0371 26.9167 25.2875V7.08334H7.08334V25.2875ZM17 18.4167C18.3694 18.4167 19.5382 17.9326 20.5063 16.9646C21.4743 15.9965 21.9583 14.8278 21.9583 13.4583C21.9583 12.0889 21.4743 10.9201 20.5063 9.95209C19.5382 8.98403 18.3694 8.5 17 8.5C15.6306 8.5 14.4618 8.98403 13.4938 9.95209C12.5257 10.9201 12.0417 12.0889 12.0417 13.4583C12.0417 14.8278 12.5257 15.9965 13.4938 16.9646C14.4618 17.9326 15.6306 18.4167 17 18.4167ZM7.08334 29.75C6.30417 29.75 5.63692 29.4723 5.08159 28.917C4.52625 28.3617 4.24906 27.6949 4.25 26.9167V7.08334C4.25 6.30417 4.52767 5.63692 5.083 5.08159C5.63834 4.52625 6.30511 4.24906 7.08334 4.25H26.9167C27.6958 4.25 28.3631 4.52767 28.9184 5.083C29.4738 5.63834 29.7509 6.30511 29.75 7.08334V26.9167C29.75 27.6958 29.4723 28.3631 28.917 28.9184C28.3617 29.4738 27.6949 29.7509 26.9167 29.75H7.08334ZM9.91667 26.9167H24.0833V26.5625C23.0917 25.7361 21.9938 25.1161 20.7896 24.7024C19.5854 24.2888 18.3222 24.0824 17 24.0833C15.6778 24.0833 14.4146 24.2902 13.2104 24.7038C12.0063 25.1175 10.9083 25.7371 9.91667 26.5625V26.9167ZM17 15.5833C16.4097 15.5833 15.9078 15.3765 15.4941 14.9628C15.0804 14.5492 14.8741 14.0477 14.875 13.4583C14.875 12.8681 15.0818 12.3661 15.4955 11.9524C15.9092 11.5388 16.4107 11.3324 17 11.3333C17.5903 11.3333 18.0923 11.5402 18.5059 11.9538C18.9196 12.3675 19.1259 12.869 19.125 13.4583C19.125 14.0486 18.9182 14.5506 18.5045 14.9643C18.0908 15.3779 17.5893 15.5843 17 15.5833Z" fill="white"/>
</svg>
