<svg width="35" height="34" viewBox="0 0 35 34" fill="none" xmlns="http://www.w3.org/2000/svg">
  <path d="M4.7793 29.75H9.0293V25.5H4.7793V29.75ZM11.8626 29.75H16.1126V25.5H11.8626V29.75ZM18.946 29.75H23.196V25.5H18.946V29.75ZM26.0293 29.75H30.2793V25.5H26.0293V29.75ZM4.7793 8.5H9.0293V4.25H4.7793V8.5ZM4.7793 15.5833H9.0293V11.3333H4.7793V15.5833ZM4.7793 22.6667H9.0293V18.4167H4.7793V22.6667ZM11.8626 8.5H16.1126V4.25H11.8626V8.5ZM11.8626 15.5833H16.1126V11.3333H11.8626V15.5833ZM11.8626 22.6667H16.1126V18.4167H11.8626V22.6667ZM18.946 8.5H23.196V4.25H18.946V8.5ZM18.946 15.5833H23.196V11.3333H18.946V15.5833ZM18.946 22.6667H23.196V18.4167H18.946V22.6667ZM26.0293 8.5H30.2793V4.25H26.0293V8.5ZM26.0293 15.5833H30.2793V11.3333H26.0293V15.5833ZM26.0293 22.6667H30.2793V18.4167H26.0293V22.6667Z" fill="#424242"/>
</svg>
