<svg width="86" height="84" viewBox="0 0 86 84" fill="none" xmlns="http://www.w3.org/2000/svg">
  <path d="M74.1708 15.2458H72.4625L58.027 1.1625C57.4631 0.621499 56.7039 0.318329 55.913 0.318329C55.1221 0.318329 54.3629 0.621499 53.7989 1.1625C52.6458 2.2875 52.6458 4.12083 53.7989 5.2875L64.0062 15.2458H22.4937L32.701 5.2875C33.8541 4.1625 33.8541 2.32916 32.701 1.1625C32.1371 0.621499 31.3778 0.318329 30.5869 0.318329C29.796 0.318329 29.0368 0.621499 28.4729 1.1625L14.0802 15.2458H12.3718C8.52808 15.2458 0.541626 15.2458 0.541626 25.9125C0.541626 29.9542 1.39579 32.6208 3.18954 34.3708C4.21454 35.4125 5.45308 35.9542 6.77704 36.2458C8.01558 36.5375 9.33954 36.5792 10.6208 36.5792H75.8791C77.2031 36.5792 78.4416 36.4958 79.6375 36.2458C83.225 35.4125 85.9583 32.9125 85.9583 25.9125C85.9583 15.2458 77.9718 15.2458 74.1708 15.2458ZM73.3593 42H12.7989C10.151 42 8.14371 44.2917 8.57079 46.8333L12.1583 68.25C13.3541 75.4167 16.5573 83.6667 30.7791 83.6667H54.7385C69.1312 83.6667 71.6937 76.625 73.2312 68.75L77.5448 46.9583C77.6667 46.3556 77.65 45.734 77.496 45.1383C77.342 44.5425 77.0545 43.9876 76.6542 43.5133C76.2539 43.0391 75.7507 42.6574 75.181 42.3957C74.6112 42.134 73.9891 41.9989 73.3593 42ZM43.25 73.25C38.4395 73.239 33.8292 71.3698 30.4277 68.0512C27.0262 64.7326 25.1102 60.2348 25.0989 55.5417C25.0989 53.8333 26.551 52.4167 28.302 52.4167C30.0531 52.4167 31.5052 53.8333 31.5052 55.5417C31.5052 61.875 36.7583 67 43.25 67C49.7416 67 54.9948 61.875 54.9948 55.5417C54.9948 53.8333 56.4468 52.4167 58.1979 52.4167C59.9489 52.4167 61.401 53.8333 61.401 55.5417C61.3897 60.2348 59.4738 64.7326 56.0722 68.0512C52.6707 71.3698 48.0605 73.239 43.25 73.25Z" fill="white"/>
</svg>
