<svg width="84" height="84" viewBox="0 0 84 84" fill="none" xmlns="http://www.w3.org/2000/svg">
  <path d="M42 62.8333C43.1806 62.8333 44.1708 62.4333 44.9708 61.6333C45.7708 60.8333 46.1694 59.8444 46.1667 58.6667V42C46.1667 40.8194 45.7667 39.8292 44.9667 39.0292C44.1667 38.2292 43.1778 37.8306 42 37.8333C40.8195 37.8333 39.8292 38.2333 39.0292 39.0333C38.2292 39.8333 37.8306 40.8222 37.8333 42V58.6667C37.8333 59.8472 38.2333 60.8375 39.0333 61.6375C39.8333 62.4375 40.8222 62.8361 42 62.8333ZM42 29.5C43.1806 29.5 44.1708 29.1 44.9708 28.3C45.7708 27.5 46.1694 26.5111 46.1667 25.3333C46.1667 24.1528 45.7667 23.1625 44.9667 22.3625C44.1667 21.5625 43.1778 21.1639 42 21.1667C40.8195 21.1667 39.8292 21.5667 39.0292 22.3667C38.2292 23.1667 37.8306 24.1556 37.8333 25.3333C37.8333 26.5139 38.2333 27.5042 39.0333 28.3042C39.8333 29.1042 40.8222 29.5028 42 29.5ZM42 83.6667C36.2361 83.6667 30.8195 82.5722 25.75 80.3833C20.6806 78.1944 16.2708 75.2264 12.5208 71.4792C8.77084 67.7292 5.80278 63.3194 3.61667 58.25C1.43056 53.1806 0.336114 47.7639 0.333336 42C0.333336 36.2361 1.42778 30.8194 3.61667 25.75C5.80556 20.6806 8.77361 16.2708 12.5208 12.5208C16.2708 8.77083 20.6806 5.80277 25.75 3.61666C30.8195 1.43055 36.2361 0.336106 42 0.333328C47.7639 0.333328 53.1806 1.42777 58.25 3.61666C63.3195 5.80555 67.7292 8.77361 71.4792 12.5208C75.2292 16.2708 78.1986 20.6806 80.3875 25.75C82.5764 30.8194 83.6695 36.2361 83.6667 42C83.6667 47.7639 82.5722 53.1806 80.3833 58.25C78.1945 63.3194 75.2264 67.7292 71.4792 71.4792C67.7292 75.2292 63.3195 78.1986 58.25 80.3875C53.1806 82.5764 47.7639 83.6694 42 83.6667Z" fill="white"/>
</svg>
