<svg width="95" height="84" viewBox="0 0 95 84" fill="none" xmlns="http://www.w3.org/2000/svg">
  <path d="M94.0114 37.6667C94.0114 35.4566 93.1134 33.3369 91.5151 31.7741C89.9168 30.2113 87.749 29.3334 85.4886 29.3334H58.5568L62.6477 10.2917C62.7329 9.87502 62.7756 9.41669 62.7756 8.95835C62.7756 7.25002 62.0511 5.66669 60.9006 4.54169L56.3835 0.166687L28.3437 27.5834C26.767 29.125 25.8295 31.2084 25.8295 33.5V75.1667C25.8295 77.3768 26.7275 79.4964 28.3258 81.0592C29.9241 82.6221 32.0919 83.5 34.3523 83.5H72.7045C76.2415 83.5 79.267 81.4167 80.5454 78.4167L93.4148 49.0417C93.7983 48.0834 94.0114 47.0834 94.0114 46V37.6667ZM0.261353 83.5H17.3068V33.5H0.261353V83.5Z" fill="white"/>
</svg>
