<svg width="92" height="68" viewBox="0 0 92 68" fill="none" xmlns="http://www.w3.org/2000/svg">
  <path d="M8.50002 0.666672C6.28988 0.666672 4.17027 1.54465 2.60746 3.10745C1.04466 4.67025 0.166687 6.78987 0.166687 9V54.8333H8.50002C8.50002 58.1485 9.81698 61.328 12.1612 63.6722C14.5054 66.0164 17.6848 67.3333 21 67.3333C24.3152 67.3333 27.4947 66.0164 29.8389 63.6722C32.1831 61.328 33.5 58.1485 33.5 54.8333H58.5C58.5 58.1485 59.817 61.328 62.1612 63.6722C64.5054 66.0164 67.6848 67.3333 71 67.3333C74.3152 67.3333 77.4947 66.0164 79.8389 63.6722C82.1831 61.328 83.5 58.1485 83.5 54.8333H91.8334V34L79.3334 17.3333H66.8334V0.666672M37.6667 9L54.3334 25.6667L37.6667 42.3333V29.8333H12.6667V21.5H37.6667M66.8334 23.5833H77.25L85.4584 34H66.8334M21 48.5833C22.6576 48.5833 24.2473 49.2418 25.4194 50.4139C26.5915 51.586 27.25 53.1757 27.25 54.8333C27.25 56.4909 26.5915 58.0806 25.4194 59.2528C24.2473 60.4249 22.6576 61.0833 21 61.0833C19.3424 61.0833 17.7527 60.4249 16.5806 59.2528C15.4085 58.0806 14.75 56.4909 14.75 54.8333C14.75 53.1757 15.4085 51.586 16.5806 50.4139C17.7527 49.2418 19.3424 48.5833 21 48.5833ZM71 48.5833C72.6576 48.5833 74.2473 49.2418 75.4194 50.4139C76.5915 51.586 77.25 53.1757 77.25 54.8333C77.25 56.4909 76.5915 58.0806 75.4194 59.2528C74.2473 60.4249 72.6576 61.0833 71 61.0833C69.3424 61.0833 67.7527 60.4249 66.5806 59.2528C65.4085 58.0806 64.75 56.4909 64.75 54.8333C64.75 53.1757 65.4085 51.586 66.5806 50.4139C67.7527 49.2418 69.3424 48.5833 71 48.5833Z" fill="white"/>
</svg>
