<svg width="24" height="20" viewBox="0 0 24 20" fill="none" xmlns="http://www.w3.org/2000/svg">
  <path d="M9.14292 14.6198L9.375 14.3645V13.1055L5.57251 5.07812H3.80249L0 13.1055V14.4259L0.206738 14.6502C0.774557 15.2651 1.46335 15.7559 2.22988 16.0918C2.99641 16.4278 3.82412 16.6016 4.66104 16.6025H4.68154C5.52191 16.5988 6.35234 16.4206 7.1203 16.0793C7.88825 15.7381 8.57699 15.2411 9.14292 14.6198ZM7.8125 13.7504C6.97891 14.5783 5.85111 15.0421 4.67622 15.0401H4.66011C3.50589 15.0459 2.39481 14.6018 1.5625 13.8021V13.457L4.6875 6.85977L7.8125 13.457V13.7504ZM19.635 5.07812H17.865L14.0625 13.1055V14.4259L14.2692 14.6502C14.8371 15.2651 15.5259 15.7559 16.2924 16.0918C17.0589 16.4278 17.8866 16.6016 18.7235 16.6025H18.744C19.5844 16.5988 20.4149 16.4206 21.1828 16.0793C21.9508 15.738 22.6395 15.241 23.2054 14.6197L23.4375 14.3645V13.1055L19.635 5.07812ZM21.875 13.7504C21.0414 14.5783 19.9136 15.0421 18.7387 15.0401H18.7226C17.5684 15.0459 16.4573 14.6018 15.625 13.8021V13.457L18.75 6.85977L21.875 13.457V13.7504Z" fill="#272727"/>
  <path d="M12.5 5.35446C12.9346 5.22382 13.3301 4.98748 13.6509 4.66659C13.9718 4.34569 14.2082 3.95025 14.3388 3.51564H19.5312V1.95314H14.3388C14.1707 1.38885 13.8248 0.893926 13.3527 0.542012C12.8806 0.190099 12.3076 0 11.7188 0C11.1299 0 10.5569 0.190099 10.0848 0.542012C9.61269 0.893926 9.26684 1.38885 9.09868 1.95314H3.90625V3.51564H9.09868C9.22932 3.95025 9.46566 4.34569 9.78655 4.66659C10.1074 4.98748 10.5029 5.22382 10.9375 5.35446V18.3594H5.85938V19.9219H17.5781V18.3594H12.5V5.35446ZM10.5469 2.73439C10.5469 2.50261 10.6156 2.27604 10.7444 2.08333C10.8731 1.89062 11.0562 1.74041 11.2703 1.65172C11.4844 1.56302 11.72 1.53981 11.9474 1.58503C12.1747 1.63025 12.3835 1.74186 12.5474 1.90575C12.7113 2.06964 12.8229 2.27844 12.8681 2.50577C12.9133 2.73309 12.8901 2.96871 12.8014 3.18284C12.7127 3.39698 12.5625 3.58 12.3698 3.70877C12.1771 3.83753 11.9505 3.90626 11.7188 3.90626C11.4079 3.90626 11.1099 3.7828 10.8901 3.56303C10.6703 3.34326 10.5469 3.04519 10.5469 2.73439Z" fill="#272727"/>
</svg>
