<svg width="21" height="22" viewBox="0 0 21 22" fill="none" xmlns="http://www.w3.org/2000/svg">
  <path d="M12.1279 20.5181C12.3142 20.4268 12.4712 20.2851 12.5811 20.1092C12.6911 19.9332 12.7496 19.73 12.75 19.5225V13.5375C12.75 13.2428 12.8681 12.9593 13.0796 12.75L19.9657 5.93927C20.1743 5.73337 20.34 5.48815 20.4531 5.2178C20.5663 4.94746 20.6247 4.65735 20.625 4.36427V1.48877C20.6244 1.34173 20.5948 1.19625 20.5379 1.06065C20.4811 0.92506 20.398 0.802015 20.2935 0.698564C20.189 0.595113 20.0651 0.513287 19.929 0.457769C19.7928 0.402251 19.647 0.374132 19.5 0.37502H1.5C0.877875 0.37502 0.375 0.872271 0.375 1.48877V4.36427C0.375 4.9549 0.612375 5.5219 1.03425 5.93927L7.92037 12.75C8.02471 12.8529 8.10757 12.9755 8.16415 13.1107C8.22074 13.2459 8.24992 13.391 8.25 13.5375V20.6363C8.25 21.4631 9.12975 22.0009 9.87787 21.6308L12.1279 20.5181Z" fill="white"/>
</svg>
