<svg width="200" height="218" viewBox="0 0 200 218" fill="none" xmlns="http://www.w3.org/2000/svg">
  <path d="M13.7106 48.0384L5 212.422H195L185.745 48.0384H151.942H49.4446H13.7106Z" fill="white"/>
  <path d="M13.7106 48.0384V43.0384C11.052 43.0384 8.85828 45.1189 8.7176 47.7738L13.7106 48.0384ZM5 212.422L0.00700474 212.158C-0.0655947 213.528 0.427992 214.868 1.37213 215.863C2.31627 216.859 3.62799 217.422 5 217.422V212.422ZM195 212.422V217.422C196.375 217.422 197.689 216.856 198.634 215.857C199.578 214.858 200.069 213.514 199.992 212.141L195 212.422ZM185.745 48.0384L190.737 47.7573C190.588 45.1093 188.397 43.0384 185.745 43.0384V48.0384ZM104.083 5L104.083 4.76837e-07L104.083 5ZM8.7176 47.7738L0.00700474 212.158L9.993 212.687L18.7036 48.3029L8.7176 47.7738ZM5 217.422H195V207.422H5V217.422ZM199.992 212.141L190.737 47.7573L180.753 48.3194L190.008 212.703L199.992 212.141ZM185.745 43.0384H151.942V53.0384H185.745V43.0384ZM151.942 43.0384H49.4446V53.0384H151.942V43.0384ZM49.4446 43.0384H13.7106V53.0384H49.4446V43.0384ZM51.3753 73.6257C51.3753 67.0864 51.9864 58.2668 54.2883 49.2789L44.6009 46.7978C42.0314 56.8307 41.3753 66.5319 41.3753 73.6257H51.3753ZM54.2883 49.2789C56.8252 39.3733 61.3307 29.5871 69.0086 22.3057C76.5757 15.1294 87.624 10.0013 104.083 10L104.083 4.76837e-07C85.3304 0.00152922 71.7375 5.93599 62.1274 15.0498C52.628 24.0585 47.4201 35.7901 44.6009 46.7978L54.2883 49.2789ZM104.083 10C119.555 9.99874 129.201 14.8689 135.465 21.7053C141.889 28.716 145.293 38.3798 147.008 48.8466L156.876 47.2301C155.013 35.8551 151.129 23.9984 142.838 14.9497C134.388 5.72666 121.894 -0.00145197 104.083 4.76837e-07L104.083 10ZM147.008 48.8466C148.395 57.3193 148.625 65.9818 148.625 73.6257H158.625C158.625 65.8435 158.399 56.5254 156.876 47.2301L147.008 48.8466Z" fill="#D9D9D9"/>
  <path d="M60.5 178C69.5 164 117.5 158.5 132.5 178" stroke="#D9D9D9" stroke-width="5" stroke-linecap="round"/>
  <circle cx="65" cy="138" r="10" fill="#D9D9D9"/>
  <circle cx="135" cy="138" r="10" fill="#D9D9D9"/>
</svg>
