<svg width="92" height="90" viewBox="0 0 92 90" fill="none" xmlns="http://www.w3.org/2000/svg">
  <path fill-rule="evenodd" clip-rule="evenodd" d="M42.8892 6.66247C40.2727 6.99997 37.0426 7.72497 32.4489 8.76247L27.2117 9.94581C23.3338 10.8208 20.6577 11.4291 18.6165 12.1125C16.6435 12.775 15.527 13.425 14.6875 14.25C13.8438 15.0708 13.179 16.1625 12.5014 18.0916C11.8026 20.0875 11.1804 22.7 10.2855 26.4958L9.07529 31.6125C8.01421 36.1083 7.27273 39.2666 6.92756 41.825C6.58666 44.3166 6.66762 46.0041 7.11933 47.5375C7.56677 49.0708 8.41478 50.5416 10.0511 52.4791C11.7344 54.4708 14.0739 56.7666 17.4105 60.0291L25.2088 67.6541C31 73.3166 35.1207 77.3375 38.6662 79.9791C42.1349 82.5708 44.6747 83.5416 47.2528 83.5416C49.8352 83.5416 52.3707 82.5708 55.8438 79.9791C59.3849 77.3375 63.51 73.3125 69.3011 67.65C75.0966 61.9833 79.2088 57.9541 81.9148 54.4916C84.5568 51.0958 85.554 48.6166 85.554 46.0916C85.554 43.5708 84.5611 41.0916 81.9105 37.6958C79.2088 34.2291 75.0923 30.1958 69.3011 24.5333L61.5028 16.9083C58.1705 13.65 55.8224 11.3625 53.7898 9.71664C51.804 8.11664 50.2997 7.28747 48.7315 6.84997C47.1634 6.40831 45.4375 6.33331 42.8935 6.66247H42.8892ZM42.054 0.46664C45.1094 0.0708067 47.7898 0.0833064 50.4915 0.84164C53.1974 1.59997 55.4773 2.97914 57.8551 4.89581C60.1563 6.75414 62.7131 9.25414 65.9134 12.3833L73.9929 20.2833C79.5753 25.7416 83.9986 30.0666 86.9901 33.9083C90.0753 37.8541 91.946 41.6541 91.946 46.0916C91.946 50.5333 90.0753 54.3333 86.9943 58.2791C83.9986 62.1208 79.5796 66.4458 73.9929 71.9041L73.652 72.2375C68.0696 77.6958 63.6463 82.0208 59.7173 84.9458C55.6818 87.9625 51.7912 89.7916 47.2528 89.7916C42.7145 89.7916 38.8281 87.9625 34.7884 84.95C30.8636 82.0208 26.4403 77.7 20.8537 72.2375L12.7827 64.3333C9.58665 61.2083 7.02558 58.7041 5.12501 56.4583C3.16478 54.1291 1.75427 51.9 0.978701 49.2583C0.203132 46.6125 0.190348 43.9916 0.595178 41.0041C0.982962 38.1125 1.80114 34.6625 2.81535 30.3541L4.09376 24.925C4.94603 21.3291 5.63637 18.3958 6.45881 16.0583C7.31961 13.6125 8.39773 11.5583 10.1705 9.82497C11.9432 8.09164 14.0483 7.03331 16.5455 6.19997C18.9361 5.39164 21.9361 4.71664 25.6136 3.88747L31.1662 2.63747C35.5725 1.63747 39.1009 0.845807 42.0582 0.462473L42.054 0.46664ZM35.4403 28.3125C34.4413 27.3356 33.0862 26.7868 31.6733 26.7868C30.2604 26.7868 28.9053 27.3356 27.9063 28.3125C26.9072 29.2894 26.3459 30.6143 26.3459 31.9958C26.3459 33.3773 26.9072 34.7023 27.9063 35.6791C28.401 36.1628 28.9882 36.5465 29.6346 36.8083C30.2809 37.0701 30.9737 37.2048 31.6733 37.2048C32.3729 37.2048 33.0657 37.0701 33.712 36.8083C34.3584 36.5465 34.9456 36.1628 35.4403 35.6791C35.935 35.1954 36.3275 34.6212 36.5952 33.9892C36.8629 33.3572 37.0007 32.6799 37.0007 31.9958C37.0007 31.3117 36.8629 30.6344 36.5952 30.0024C36.3275 29.3704 35.935 28.7962 35.4403 28.3125ZM23.3849 23.8958C25.5826 21.7464 28.5635 20.5387 31.6718 20.5383C34.7801 20.538 37.7613 21.7449 39.9595 23.8937C42.1577 26.0425 43.3929 28.9572 43.3933 31.9964C43.3937 35.0357 42.1593 37.9506 39.9617 40.1C37.7634 42.2493 34.782 43.4568 31.6733 43.4568C28.5646 43.4568 25.5832 42.2493 23.385 40.1C21.1867 37.9506 19.9518 35.0355 19.9518 31.9958C19.9518 28.9562 21.1867 26.0452 23.3849 23.8958ZM50.3594 45.4458C49.3742 45.4825 48.4434 45.8972 47.7685 46.6C46.1151 48.2166 46.5497 49.8291 47.0142 50.2833C47.483 50.7375 49.1321 51.1583 50.7813 49.5458C54.1222 46.2791 59.892 45.1958 63.5867 48.8083C66.4545 51.6125 66.4332 55.6375 64.7159 58.825C65.1384 59.4255 65.3328 60.1516 65.2657 60.8776C65.1985 61.6035 64.8739 62.2837 64.348 62.8003C63.8221 63.317 63.1281 63.6376 62.386 63.7068C61.6438 63.776 60.9003 63.5893 60.2841 63.1791C58.3716 64.2044 56.1536 64.5462 54.0114 64.1458C53.6001 64.0632 53.2094 63.9022 52.8617 63.6719C52.5141 63.4417 52.2162 63.1467 51.9851 62.8039C51.754 62.4611 51.5942 62.0772 51.5149 61.674C51.4356 61.2708 51.4382 60.8563 51.5227 60.4541C51.6072 60.052 51.7719 59.67 52.0074 59.3301C52.2429 58.9901 52.5445 58.6989 52.8951 58.4729C53.2457 58.2469 53.6384 58.0907 54.0507 58.0132C54.4631 57.9356 54.887 57.9382 55.2983 58.0208C56.0526 58.175 57.2713 57.9375 58.3153 56.9125C59.9645 55.2958 59.5341 53.6833 59.0696 53.2291C58.6009 52.775 56.9517 52.3541 55.3026 53.9666C51.9617 57.2333 46.1918 58.3166 42.4972 54.7041C39.6293 51.9 39.6506 47.875 41.3679 44.6875C40.9454 44.0869 40.751 43.3608 40.8182 42.6349C40.8854 41.9089 41.21 41.2288 41.7358 40.7121C42.2617 40.1955 42.9557 39.8748 43.6979 39.8056C44.44 39.7365 45.1835 39.9231 45.7997 40.3333C47.2486 39.5791 48.8381 39.1791 50.4233 39.1958C51.2709 39.2035 52.0807 39.5402 52.6745 40.1317C53.2683 40.7232 53.5974 41.5212 53.5895 42.35C53.5816 43.1788 53.2373 43.9706 52.6323 44.5511C52.0273 45.1317 51.207 45.4535 50.3594 45.4458Z" fill="white"/>
</svg>
