<svg width="100" height="90" viewBox="0 0 100 90" fill="none" xmlns="http://www.w3.org/2000/svg">
  <path d="M99.2682 24.45L94.0298 7.6C92.9323 3.1 89.0409 0 84.501 0H15.205C10.715 0 6.77374 3.15 5.72607 7.6L0.48771 24.45C-1.80719 34.3 4.72829 40 4.97773 40.3V80C4.97773 85.5 9.46776 90 14.9556 90H84.8003C90.2881 90 94.7782 85.5 94.7782 80V40.3C100.366 34.7 100.216 28.25 99.2682 24.45ZM54.8669 10H64.6451L67.3391 27.6C67.7882 31.15 65.3935 35 60.9533 35C57.6108 35 54.8669 32.05 54.8669 28.45V10ZM22.1396 29.3C21.7405 32.55 19.1462 35 16.103 35C11.4633 35 9.36798 30.15 10.1662 26.8L15.205 10H25.0332L22.1396 29.3ZM42.3946 65H34.9112V70H42.3946C43.7915 70 44.889 71.1 44.889 72.5C44.889 73.9 43.7915 75 42.3946 75H32.4168C31.0199 75 29.9223 73.9 29.9223 72.5V62.5C29.9223 61.1 31.0199 60 32.4168 60H39.9001V55H32.4168C31.0199 55 29.9223 53.9 29.9223 52.5C29.9223 51.1 31.0199 50 32.4168 50H42.3946C43.7915 50 44.889 51.1 44.889 52.5V62.5C44.889 63.9 43.7915 65 42.3946 65ZM44.889 28.45C44.889 32.05 42.1451 35 38.4533 35C34.7117 35 31.9678 31.5 32.3669 27.6L35.1108 10H44.889V28.45ZM67.3391 75C65.9423 75 64.8447 73.9 64.8447 72.5V65H57.3613C55.9644 65 54.8669 63.9 54.8669 62.5V52.5C54.8669 51.1 55.9644 50 57.3613 50C58.7582 50 59.8558 51.1 59.8558 52.5V60H64.8447V52.5C64.8447 51.1 65.9423 50 67.3391 50C68.736 50 69.8336 51.1 69.8336 52.5V72.5C69.8336 73.9 68.736 75 67.3391 75ZM83.6529 35C80.6097 35 77.9655 32.55 77.6163 29.3L74.7227 10L84.3513 9.95L89.5897 26.8C90.3879 30.15 88.3425 35 83.6529 35Z" fill="white"/>
</svg>
